<svg xmlns="http://www.w3.org/2000/svg" viewBox="0 0 24 24">
    <path
        d="M18 2C20.206 2 22 3.794 22 6V18C22 20.206 20.206 22 18 22H6C3.794 22 2 20.206 2 18V6C2 3.794 3.794 2 6 2H18ZM18 0H6C2.686 0 0 2.686 0 6V18C0 21.314 2.686 24 6 24H18C21.314 24 24 21.314 24 18V6C24 2.686 21.314 0 18 0Z"
        fill="#cc99ff"
    />
    
    <path
        d="M9.957 17C9.704 17 9.452 16.904 9.257 16.714L6.4 13.914C6.006 13.528 6 12.895 6.386 12.5C6.773 12.105 7.407 12.1 7.8 12.485L9.957 14.6L16.399 8.286C16.794 7.9 17.427 7.904 17.813 8.3C18.2 8.694 18.194 9.328 17.8 9.714L10.657 16.714C10.462 16.904 10.21 17 9.957 17Z"
        fill="#cc99ff"
    />
</svg>