<svg xmlns="http://www.w3.org/2000/svg" xmlns:xlink="http://www.w3.org/1999/xlink" style="position: absolute; width: 0; height: 0" aria-hidden="true"><svg xmlns="http://www.w3.org/2000/svg" xmlns:xlink="http://www.w3.org/1999/xlink" style="position: absolute; width: 0; height: 0" aria-hidden="true">    <defs>

        <symbol id="menu_roulette" viewBox="0 0 512 512">
            <g><path d="m107.91 98.12c-28.165 33.199-43.326 71.491-46.36 111.88h158.24z"/><path d="m219.79 240h-158.22c3.25 42.51 20.19 81.25 46.41 111.81z"/><path d="m241 419.43v-158.22l-111.81 111.81c30.56 26.22 69.3 43.16 111.81 46.41z"/><path d="m271 261.21v158.22c42.51-3.25 81.25-20.19 111.81-46.41z"/><path d="m215.834 106.583-31.468-62.936c-20.061 7.939-38.778 19.222-55.216 33.292l107.46 107.461c1.42-.68 2.89-1.29 4.39-1.82v-53.701c-10.78-3.806-19.841-11.647-25.166-22.296z"/><path d="m327.776 43.696-31.443 62.887c-5.352 10.704-14.481 18.565-25.333 22.35v53.647c1.5.53 2.97 1.14 4.39 1.82l107.46-107.46c-16.4-14.038-35.066-25.307-55.074-33.244z"/><path d="m206.937 21.708 35.729 71.459c5.528 11.056 21.305 11.056 26.833 0l35.729-71.459c4.988-9.973-2.264-21.708-13.415-21.708h-71.459c-11.151 0-18.403 11.735-13.417 21.708z"/><path d="m450.45 210c-3.022-40.24-18.098-78.566-46.36-111.88l-111.88 111.88z"/><path d="m404.02 351.81c26.22-30.56 43.16-69.3 46.4-111.81h-158.21z"/><circle cx="256" cy="225" r="15"/><path d="m406 482h-15v-47c0-9.45-.98-18.81-2.91-27.95-37.12 27.01-82.77 42.95-132.09 42.95s-94.97-15.94-132.09-42.95c-1.93 9.14-2.91 18.5-2.91 27.95v47h-15c-8.284 0-15 6.716-15 15s6.716 15 15 15h300c8.284 0 15-6.716 15-15s-6.716-15-15-15z"/></g>
        </symbol>

        <symbol id="menu_casino" viewBox="0 0 64 64">
            <path d="m10.66 53.06c.04.05.08.1.13.15.04.04.09.08.14.11 0 0 .01.02.02.02 5.38 5.31 12.73 8.6 20.85 8.64.03.01.06.01.1.01.03.01.07.01.1.01s.07 0 .1-.01c.04 0 .07 0 .1-.01 8.16-.04 15.55-3.37 20.93-8.71.03-.02.05-.04.07-.06.05-.05.09-.1.13-.15 5.37-5.42 8.67-12.86 8.67-21.06v-.01c0-8.2-3.31-15.64-8.67-21.05-.04-.05-.08-.1-.13-.14-.01-.02-.03-.04-.05-.05q0-.01-.01-.01c-5.42-5.4-12.9-8.74-21.14-8.74s-15.63 3.3-21.05 8.65c0 0 0 .01-.01.01-.05.04-.1.08-.15.13s-.09.1-.13.15c0 .01-.01.01-.01.01-5.35 5.41-8.65 12.85-8.65 21.04v.01c0 8.2 3.3 15.63 8.65 21.05 0 0 .01 0 .01.01zm22.34 6.9v-6.9c4.93-.22 9.55-2.13 13.19-5.44l4.87 4.86c-4.77 4.45-11.1 7.25-18.06 7.48zm19.48-47.03c4.45 4.77 7.25 11.1 7.49 18.06h-6.92c-.22-4.93-2.13-9.55-5.44-13.19zm-21.48-8.91v6.91c-4.92.23-9.54 2.14-13.2 5.46l-4.87-4.87c4.77-4.45 11.1-7.26 18.07-7.5zm-12.51 14.48c3.6-3.58 8.36-5.56 13.41-5.59h.02c.03.01.05.01.08.01s.05 0 .08-.01h.02c5.04.03 9.78 1.99 13.35 5.54l.01.01c.01.01.03.03.04.04s.03.03.03.04c3.58 3.59 5.55 8.37 5.55 13.45s-1.98 9.9-5.58 13.51l-.01.01c-3.58 3.57-8.33 5.55-13.39 5.58h-.02c-.03-.01-.05-.01-.08-.01s-.05 0-.08.01h-.02c-5.05-.03-9.81-2.01-13.41-5.59-3.6-3.61-5.58-8.41-5.58-13.51s1.98-9.89 5.58-13.49zm-7.55 14.49c.22 4.93 2.13 9.55 5.45 13.21l-4.87 4.87c-4.45-4.77-7.26-11.1-7.49-18.08z"/><path d="m27.51 40.33c.88 0 1.76-.15 2.59-.46l-1.67 4.56c-.11.31-.07.65.12.92.19.26.49.42.82.42h5.26c.33 0 .64-.16.82-.42.19-.27.23-.61.12-.92l-1.67-4.56c2.66.98 5.77.4 7.88-1.72 2.87-2.86 2.91-7.56.08-10.48l-9.15-9.15c-.38-.38-1.04-.38-1.42 0l-9.14 9.15q-.01 0-.02.01c-1.35 1.4-2.1 3.25-2.1 5.19.01 2 .78 3.88 2.19 5.28 1.45 1.45 3.37 2.18 5.29 2.18z"/>
        </symbol>

        <symbol id="menu_sports" viewBox="0 0 72.371 72.372">
            <g>
                <path d="M22.57,2.648c-4.489,1.82-8.517,4.496-11.971,7.949C7.144,14.051,4.471,18.08,2.65,22.568C0.892,26.904,0,31.486,0,36.186
                    c0,4.699,0.892,9.281,2.65,13.615c1.821,4.489,4.495,8.518,7.949,11.971c3.454,3.455,7.481,6.129,11.971,7.949
                    c4.336,1.76,8.917,2.649,13.617,2.649c4.7,0,9.28-0.892,13.616-2.649c4.488-1.82,8.518-4.494,11.971-7.949
                    c3.455-3.453,6.129-7.48,7.949-11.971c1.758-4.334,2.648-8.916,2.648-13.615c0-4.7-0.891-9.282-2.648-13.618
                    c-1.82-4.488-4.496-8.518-7.949-11.971s-7.479-6.129-11.971-7.949C45.467,0.891,40.887,0,36.187,0
                    C31.487,0,26.906,0.891,22.57,2.648z M9.044,51.419c-1.743-1.094-3.349-2.354-4.771-3.838c-2.172-6.112-2.54-12.729-1.101-19.01
                    c0.677-1.335,1.447-2.617,2.318-3.845c0.269-0.379,0.518-0.774,0.806-1.142l8.166,4.832c0,0.064,0,0.134,0,0.205
                    c-0.021,4.392,0.425,8.752,1.313,13.049c0.003,0.02,0.006,0.031,0.01,0.049l-6.333,9.93C9.314,51.579,9.177,51.503,9.044,51.419z
                    M33.324,68.206c1.409,0.719,2.858,1.326,4.347,1.82c-6.325,0.275-12.713-1.207-18.36-4.447L33,68.018
                    C33.105,68.085,33.212,68.149,33.324,68.206z M33.274,65.735L17.12,62.856c-1.89-2.295-3.59-4.723-5.051-7.318
                    c-0.372-0.66-0.787-1.301-1.102-1.99l6.327-9.92c0.14,0.035,0.296,0.072,0.473,0.119c3.958,1.059,7.986,1.812,12.042,2.402
                    c0.237,0.033,0.435,0.062,0.604,0.08l7.584,13.113c-1.316,1.85-2.647,3.69-4.007,5.51C33.764,65.155,33.524,65.446,33.274,65.735z
                    M60.15,60.149c-1.286,1.287-2.651,2.447-4.08,3.481c-0.237-1.894-0.646-3.75-1.223-5.563l8.092-15.096
                    c2.229-1.015,4.379-2.166,6.375-3.593c0.261-0.185,0.478-0.392,0.646-0.618C69.374,46.561,66.104,54.196,60.15,60.149z
                    M59.791,40.571c0.301,0.574,0.598,1.154,0.896,1.742l-7.816,14.58c-0.045,0.01-0.088,0.02-0.133,0.026
                    c-4.225,0.789-8.484,1.209-12.779,1.229l-7.8-13.487c1.214-2.254,2.417-4.517,3.61-6.781c0.81-1.536,1.606-3.082,2.401-4.627
                    l16.143-1.658C56.29,34.495,58.163,37.457,59.791,40.571z M56.516,23.277c-0.766,2.023-1.586,4.025-2.401,6.031l-15.726,1.615
                    c-0.188-0.248-0.383-0.492-0.588-0.725c-1.857-2.103-3.726-4.193-5.592-6.289c0.017-0.021,0.034-0.037,0.051-0.056
                    c-0.753-0.752-1.508-1.504-2.261-2.258l4.378-13.181c0.302-0.08,0.606-0.147,0.913-0.18c2.38-0.242,4.763-0.516,7.149-0.654
                    c1.461-0.082,2.93-0.129,4.416-0.024l10.832,12.209C57.314,20.943,56.95,22.124,56.516,23.277z M60.15,12.221
                    c2.988,2.99,5.302,6.402,6.938,10.047c-2.024-1.393-4.188-2.539-6.463-3.473c-0.354-0.146-0.717-0.275-1.086-0.402L48.877,6.376
                    c0.074-0.519,0.113-1.039,0.129-1.563C53.062,6.464,56.864,8.936,60.15,12.221z M25.334,4.182c0.042,0.031,0.062,0.057,0.086,0.064
                    c2.437,0.842,4.654,2.082,6.744,3.553l-4.09,12.317c-0.021,0.006-0.041,0.012-0.061,0.021c-0.837,0.346-1.69,0.656-2.514,1.031
                    c-3.395,1.543-6.705,3.252-9.823,5.301l-8.071-4.775c0.012-0.252,0.055-0.508,0.141-0.736c0.542-1.444,1.075-2.896,1.688-4.311
                    c0.472-1.09,1.01-2.143,1.597-3.172c0.384-0.424,0.782-0.844,1.192-1.254c3.833-3.832,8.363-6.553,13.186-8.162
                    C25.384,4.098,25.358,4.139,25.334,4.182z"/></g><g></g><g></g><g></g><g></g><g></g><g></g><g></g><g></g><g></g><g></g><g></g><g></g><g></g><g></g><g>
            </g>
        </symbol>

        <symbol id="menu_minigame" clip-rule="evenodd" fill-rule="evenodd"  stroke-linejoin="round" stroke-miterlimit="2" viewBox="0 0 24 24" >
            <g id="Icon"><path d="m14.011 12.739c0-.729-.29-1.429-.806-1.944-.515-.516-1.215-.806-1.944-.806-1.986 0-5.014 0-7 0-.73 0-1.429.29-1.945.806-.515.515-.805 1.215-.805 1.944v7c0 .73.29 1.429.805 1.945.516.515 1.215.805 1.945.805h7c.729 0 1.429-.29 1.944-.805.516-.516.806-1.215.806-1.945zm-2.75 6c0-.552-.448-1-1-1s-1 .448-1 1 .448 1 1 1 1-.448 1-1zm-6-1c-.552 0-1 .448-1 1s.448 1 1 1 1-.448 1-1-.448-1-1-1zm2.5-2.5c-.552 0-1 .448-1 1s.448 1 1 1 1-.448 1-1-.448-1-1-1zm2.5-2.5c-.552 0-1 .448-1 1s.448 1 1 1 1-.448 1-1-.448-1-1-1zm-4 1c0-.552-.448-1-1-1s-1 .448-1 1 .448 1 1 1 1-.448 1-1z"/><path d="m8.528 8.989h2.733c.994 0 1.948.395 2.651 1.099.704.703 1.099 1.657 1.099 2.651v2.592c.824.279 1.391.461 1.427.474.686.247 1.442.211 2.102-.099.66-.311 1.169-.871 1.416-1.557.673-1.869 1.698-4.718 2.371-6.587.247-.686.211-1.442-.1-2.102-.31-.66-.87-1.169-1.557-1.416-1.868-.673-4.717-1.698-6.586-2.371-.686-.247-1.443-.211-2.102.1-.66.31-1.17.87-1.417 1.557zm9.179 3.288c.187-.52-.083-1.093-.602-1.28s-1.093.083-1.279.602c-.187.52.083 1.093.602 1.28s1.093-.083 1.279-.602zm-2.108-4.479c-.519-.187-1.092.083-1.279.603-.187.519.083 1.092.602 1.279s1.093-.083 1.28-.602-.083-1.093-.603-1.28zm-.903-1.919c.187-.519-.083-1.093-.602-1.28-.52-.186-1.093.083-1.28.603-.187.519.083 1.092.602 1.279.52.187 1.093-.083 1.28-.602z"/></g>
        </symbol>

        <svg id="menu_user" viewBox="-42 0 512 512.002" xmlns="http://www.w3.org/2000/svg">
            <path d="m210.351562 246.632812c33.882813 0 63.222657-12.152343 87.195313-36.128906 23.972656-23.972656 36.125-53.304687 36.125-87.191406 0-33.875-12.152344-63.210938-36.128906-87.191406-23.976563-23.96875-53.3125-36.121094-87.191407-36.121094-33.886718 0-63.21875 12.152344-87.191406 36.125s-36.128906 53.308594-36.128906 87.1875c0 33.886719 12.15625 63.222656 36.132812 87.195312 23.976563 23.96875 53.3125 36.125 87.1875 36.125zm0 0"/><path d="m426.128906 393.703125c-.691406-9.976563-2.089844-20.859375-4.148437-32.351563-2.078125-11.578124-4.753907-22.523437-7.957031-32.527343-3.308594-10.339844-7.808594-20.550781-13.371094-30.335938-5.773438-10.15625-12.554688-19-20.164063-26.277343-7.957031-7.613282-17.699219-13.734376-28.964843-18.199219-11.226563-4.441407-23.667969-6.691407-36.976563-6.691407-5.226563 0-10.28125 2.144532-20.042969 8.5-6.007812 3.917969-13.035156 8.449219-20.878906 13.460938-6.707031 4.273438-15.792969 8.277344-27.015625 11.902344-10.949219 3.542968-22.066406 5.339844-33.039063 5.339844-10.972656 0-22.085937-1.796876-33.046874-5.339844-11.210938-3.621094-20.296876-7.625-26.996094-11.898438-7.769532-4.964844-14.800782-9.496094-20.898438-13.46875-9.75-6.355468-14.808594-8.5-20.035156-8.5-13.3125 0-25.75 2.253906-36.972656 6.699219-11.257813 4.457031-21.003906 10.578125-28.96875 18.199219-7.605469 7.28125-14.390625 16.121094-20.15625 26.273437-5.558594 9.785157-10.058594 19.992188-13.371094 30.339844-3.199219 10.003906-5.875 20.945313-7.953125 32.523437-2.058594 11.476563-3.457031 22.363282-4.148437 32.363282-.679688 9.796875-1.023438 19.964844-1.023438 30.234375 0 26.726562 8.496094 48.363281 25.25 64.320312 16.546875 15.746094 38.441406 23.734375 65.066406 23.734375h246.53125c26.625 0 48.511719-7.984375 65.0625-23.734375 16.757813-15.945312 25.253906-37.585937 25.253906-64.324219-.003906-10.316406-.351562-20.492187-1.035156-30.242187zm0 0"/>
        </svg>

        <symbol id="menu_event" viewBox="0 0 512 512">
            <g>
                <g>
                    <path d="M478.609,99.726H441.34c4.916-7.78,8.16-16.513,9.085-25.749C453.38,44.46,437.835,18,411.37,6.269
                        c-24.326-10.783-51.663-6.375-71.348,11.479l-47.06,42.65c-9.165-10.024-22.34-16.324-36.962-16.324
                        c-14.648,0-27.844,6.32-37.011,16.375l-47.12-42.706C152.152-0.111,124.826-4.502,100.511,6.275
                        C74.053,18.007,58.505,44.476,61.469,73.992c0.927,9.229,4.169,17.958,9.084,25.734H33.391C14.949,99.726,0,114.676,0,133.117
                        v50.087c0,9.22,7.475,16.696,16.696,16.696h478.609c9.22,0,16.696-7.475,16.696-16.696v-50.087
                        C512,114.676,497.051,99.726,478.609,99.726z M205.913,94.161v5.565H127.37c-20.752,0-37.084-19.346-31.901-40.952
                        c2.283-9.515,9.151-17.626,18.034-21.732c12.198-5.638,25.71-3.828,35.955,5.445l56.469,51.182
                        C205.924,93.834,205.913,93.996,205.913,94.161z M417.294,69.544c-1.244,17.353-16.919,30.184-34.316,30.184h-76.891v-5.565
                        c0-0.197-0.012-0.392-0.014-0.589c12.792-11.596,40.543-36.748,55.594-50.391c8.554-7.753,20.523-11.372,31.587-8.072
                        C409.131,39.847,418.455,53.349,417.294,69.544z"/>
                </g>
            </g>
            <g>
                <g>
                    <path d="M33.391,233.291v244.87c0,18.442,14.949,33.391,33.391,33.391h155.826V233.291H33.391z"/>
                </g>
            </g>
            <g>
                <g>
                    <path d="M289.391,233.291v278.261h155.826c18.442,0,33.391-14.949,33.391-33.391v-244.87H289.391z"/>
                </g></g><g></g><g></g><g></g><g></g><g></g><g></g><g></g><g></g><g></g><g></g><g></g><g></g><g></g><g></g><g>
            </g>
        </symbol>

        <symbol id="menu_affiliate" viewBox="0 0 512 512">
            <path d="m49.4 512a49.354 49.354 0 0 0 40.1-78.188l109.021-109.024a89.529 89.529 0 0 0 126.079-11.082l93.474 65.332a49.617 49.617 0 1 0 9.19-13.092l-93.469-65.337a89.505 89.505 0 0 0 -3.024-94.073l51.711-41.285a39.515 39.515 0 1 0 -9.977-12.5l-51.722 41.29a89.544 89.544 0 0 0 -105.169-18.1l-55.622-89.4a49.239 49.239 0 1 0 -13.569 8.474l55.618 89.4a89.727 89.727 0 0 0 -35.37 63.585h-57.241a39.415 39.415 0 1 0 0 16h57.241a89.312 89.312 0 0 0 20.541 49.476l-109.018 109.024a49.386 49.386 0 1 0 -28.794 89.5z" fill-rule="evenodd"/>
        </symbol>

        <symbol id="menu_support" viewBox="0 0 64 64" >
            <g id="Zoom_In" data-name="Zoom In"><path d="m11 47h-2a4 4 0 0 1 -4-4v-10a4 4 0 0 1 4-4h2a4 4 0 0 1 4 4v10a4 4 0 0 1 -4 4zm48-4v-10a4 4 0 0 0 -4-4h-2a4 4 0 0 0 -4 4v10a4 4 0 0 0 4 4h2a4 4 0 0 0 4-4zm-46.16-17.61a21 21 0 0 1 10.54-10.54 1 1 0 0 0 -.82-1.85 23 23 0 0 0 -11.56 11.57 1 1 0 0 0 .93 1.43 1 1 0 0 0 .91-.61zm39.64.5a1 1 0 0 0 .5-1.32 23 23 0 0 0 -11.51-11.57 1 1 0 1 0 -.82 1.82 21 21 0 0 1 10.51 10.57 1 1 0 0 0 .91.59 1 1 0 0 0 .41-.09zm-29.48 11.11a2 2 0 1 0 -2 2 2 2 0 0 0 2-2zm11 0a2 2 0 1 0 -2 2 2 2 0 0 0 2-2zm11 0a2 2 0 1 0 -2 2 2 2 0 0 0 2-2zm-8.91 20.91a22.87 22.87 0 0 0 17.19-10.36 1 1 0 1 0 -1.68-1.1 20.85 20.85 0 0 1 -15.69 9.46 1 1 0 0 0 .09 2zm-.09-.91a2 2 0 0 0 -2-2h-4a2 2 0 0 0 -2 2 2 2 0 0 0 2 2h4a2 2 0 0 0 2-2zm-25-28 11-15.17.21.44a2.18 2.18 0 0 0 2.86 1 18.17 18.17 0 0 1 13.82 0 2.16 2.16 0 0 0 2.84-1l.23-.45a2.18 2.18 0 0 0 -1-2.95 22.59 22.59 0 0 0 -17.92 0 2.18 2.18 0 0 0 -1.04 2.96z"/></g>
        </symbol>

        <symbol id="menu_language" viewBox="0 0 512 512">
            <g>
                <g>
                    <polygon points="138.71,137 132.29,137 120.293,197 150.707,197 		"/>
                </g>
            </g>
            <g>
                <g>
                    <path d="M381.374,257c6.477,17.399,15.092,31.483,24.626,43.467c9.534-11.984,19.149-26.069,25.626-43.467H381.374z"/>
                </g>
            </g>
            <g>
                <g>
                    <path d="M467,91H280.717l38.842,311.679c0.687,12.748-2.798,24.75-11.118,34.146L242.663,512H467c24.814,0,45-20.186,45-45V137
                        C512,112.186,491.814,91,467,91z M467,257h-4.006c-8.535,27.383-22.07,48.81-36.136,65.702
                        c11.019,10.074,22.802,18.338,34.517,27.594c6.46,5.171,7.515,14.604,2.329,21.079c-5.162,6.465-14.632,7.513-21.079,2.329
                        c-12.729-10.047-24.677-18.457-36.625-29.421c-11.948,10.964-22.896,19.374-35.625,29.421c-6.447,5.184-15.917,4.136-21.079-2.329
                        c-5.186-6.475-4.131-15.908,2.329-21.079c11.715-9.256,22.498-17.52,33.517-27.594c-14.066-16.891-26.602-38.318-35.136-65.702
                        H346c-8.291,0-15-6.709-15-15s6.709-15,15-15h45v-15c0-8.291,6.709-15,15-15c8.291,0,15,6.709,15,15v15h46c8.291,0,15,6.709,15,15
                        S475.291,257,467,257z"/>
                </g>
            </g>
            <g>
                <g>
                    <path d="M244.164,39.419C241.366,16.948,222.162,0,199.516,0H45C20.186,0,0,20.186,0,45v332c0,24.814,20.186,45,45,45
                        c89.67,0,154.177,0,236.551,0c4.376-5.002,8.044-8.134,8.199-14.663C289.788,405.7,244.367,41.043,244.164,39.419z
                        M183.944,286.707c-7.954,1.637-16.011-3.527-17.651-11.763L156.706,227h-42.411l-9.587,47.944
                        c-1.611,8.115-9.434,13.447-17.651,11.763c-8.115-1.626-13.389-9.521-11.763-17.651l29.999-150
                        C106.699,112.054,112.852,107,120,107h31c7.148,0,13.301,5.054,14.707,12.056l30,150
                        C197.333,277.186,192.06,285.081,183.944,286.707z"/>
                </g>
            </g>
            <g>
                <g>
                    <path d="M175.261,452l2.574,20.581c1.716,13.783,10.874,27.838,25.938,34.856c28.428-31.294,11.229-12.362,50.359-55.437H175.261z
                        "/>
                </g></g><g></g><g></g><g></g><g></g><g></g><g></g><g></g><g></g><g></g><g></g><g></g><g></g><g></g><g></g><g>
            </g>
        </symbol>

        <!-- 카지노메뉴 -->
        <symbol id="menu_symbol" viewBox="0 0 100 100" data-name="Layer 1">
            <path d="m62.5500488 86.3890726-37.6300049.0499878c-1.1999512-1.6699829-4.5400391-7.6799927.75-17.1500244 6.5800781-11.789978 26.4499512-28.789978 26.6500244-28.9599609.4000244-.3400269.5799561-.8699951.4799805-1.3800049-.0999756-.5200195-.4799805-.9299927-.9799805-1.0900269-.4899902-.1599731-10.3699951-3.2700195-17.5200195-3.2700195-1.3399658 0-2.5799561.1100464-3.6500244.3700562-5.0999756 1.2299805-6.3199463 5.3899536-6.25 8.4099731l-6.6499023.0800171-.1000977-29.5c2.1201172-.3200073 5.6999512-.6600342 7.8500977-.0499878 2.6799316.7599487 3.4299316 3.1499634 3.4599609 3.2399902.1899414.6499634.8000488 1.0599976 1.4699707 1.0299683.6799316-.039978 1.2299805-.5499878 1.3400879-1.2199707.0698242-.4200439.829834-4.0499878 6.8198242-3.1300049 3.0900879.4799805 5.7900391 2.1799927 8.6501465 3.9699707 3.7800293 2.3699951 8.0599365 5.0599976 13.9199219 5.1799927h.3601074c7.9599609 0 13.9599609-5.2699585 16.3099365-7.6999512l4.5198975 4.5199585c-3.3398438 4.710022-17.0198975 24.5800171-21.3898926 39.7600098-3.7700195 13.0800171-.4300537 22.6900024 1.5899658 26.8400269z"/>
        </symbol>

        <symbol id="menu_livecasino" viewBox="0 0 64 64">
            <path d="m26.80913 29.32622a165.37 165.37 0 0 1 3.5905 29.65393 1.00191 1.00191 0 0 1 -1.93032.39 85.49921 85.49921 0 0 0 -20.49273-30.614 4.06483 4.06483 0 0 1 1.23032-6.64089l3.59034-1.52026-7.29095-5.87077a4.07727 4.07727 0 0 1 .97021-6.89091l8.36106-3.51044a4.07662 4.07662 0 0 1 5.37069 2.31035 164.13873 164.13873 0 0 1 6.60088 22.69299z"/><path d="m37.36053 11.80386-5.36071-2.68035-5.3607 2.68035a1.89644 1.89644 0 0 1 -2.73037-1.69028v-4.22048a1.89641 1.89641 0 0 1 2.73043-1.69018l5.36067 2.6803 5.36071-2.68035a1.89641 1.89641 0 0 1 2.73034 1.69027v4.22049a1.89613 1.89613 0 0 1 -2.73037 1.69023z"/><path d="m58.49336 14.72423-7.29096 5.87077 3.59045 1.52023a4.06549 4.06549 0 0 1 1.27009 6.60087 85.54379 85.54379 0 0 0 -20.53262 30.65412 1.003 1.003 0 0 1 -1.93027-.39016 164.84145 164.84145 0 0 1 10.19133-52.34687 4.07821 4.07821 0 0 1 5.37073-2.31026l8.36115 3.51037a4.0773 4.0773 0 0 1 .9701 6.89093z"/>
        </symbol>

        <symbol id="menu_betgames" viewBox="0 0 512 218.46">
            <path  d="M256,0c-60.33,0-109.23,48.9-109.23,109.23s48.9,109.23,109.23,109.23,109.23-48.9,109.23-109.23S316.33,0,256,0ZM256,155.11c-25.34,0-45.88-20.54-45.88-45.88s20.54-45.88,45.88-45.88,45.88,20.54,45.88,45.88-20.54,45.88-45.88,45.88Z"/>
            <path  d="M98.32,108.74L60.34,23.56C53.24,7.65,34.6.51,18.7,7.61,2.79,14.7-4.35,33.34,2.74,49.24l1.94,4.34h0s36.06,80.84,36.06,80.84l25.04,56.14h0s1.94,4.34,1.94,4.34c7.09,15.9,25.74,23.05,41.64,15.95,15.9-7.09,23.05-25.74,15.95-41.64l-26.97-60.48Z"/>
            <path  d="M482.28,108.74l-37.99-85.18c-7.09-15.9-25.74-23.05-41.64-15.95-15.9,7.09-23.05,25.74-15.95,41.64l1.94,4.34h0s36.06,80.84,36.06,80.84l25.04,56.14h0s1.94,4.34,1.94,4.34c7.09,15.9,25.74,23.05,41.64,15.95,15.9-7.09,23.05-25.74,15.95-41.64l-26.97-60.48Z"/>
        </symbol>

        <symbol id="menu_tablegames" enable-background="new 0 0 508.74 508.74" viewBox="0 0 508.74 508.74">
            <g id="XMLID_667_"><path id="XMLID_668_" d="m433.294 239.37h75.446c-4.435-53.494-32.36-100.417-73.41-130.411l-57.234 52.425c29.204 15.365 50.327 44.085 55.198 77.986z"/><path id="XMLID_686_" d="m130.645 161.384-57.235-52.426c-41.05 29.995-68.975 76.918-73.41 130.412h75.446c4.871-33.901 25.994-62.621 55.199-77.986z"/><path id="XMLID_687_" d="m163.294 358.141-63.145 57.829c23.92 11.773 50.809 18.4 79.221 18.4h60v-75h-60c-5.465 0-10.834-.421-16.076-1.229z"/><path id="XMLID_690_" d="m179.37 149.37h60v-75h-60c-28.411 0-55.3 6.627-79.219 18.399l63.136 57.832c5.244-.809 10.615-1.231 16.083-1.231z"/><path id="XMLID_691_" d="m345.453 150.602 63.136-57.832c-23.919-11.773-50.808-18.4-79.219-18.4h-60v75h60c5.468 0 10.839.422 16.083 1.232z"/><path id="XMLID_693_" d="m75.446 269.37h-75.446c4.435 53.493 32.36 100.416 73.409 130.41l57.24-52.422c-29.207-15.364-50.332-44.085-55.203-77.988z"/><path id="XMLID_695_" d="m329.37 359.37h-60v75h60c28.411 0 55.301-6.627 79.22-18.4l-63.145-57.829c-5.242.808-10.61 1.229-16.075 1.229z"/><path id="XMLID_698_" d="m378.091 347.358 57.24 52.423c41.049-29.995 68.975-76.918 73.409-130.411h-75.446c-4.871 33.903-25.996 62.624-55.203 77.988z"/><path id="XMLID_702_" d="m329.37 179.37h-150c-99.386 3.782-99.311 146.254 0 150h150c99.386-3.782 99.311-146.254 0-150zm-150 105h-30v-60h30zm60 0h-30v-60h30zm60 0h-30v-60h30zm60 0h-30v-60h30z"/></g>
        </symbol>

        <!-- 내계정 메뉴 -->
        <symbol id="menu_wallet" viewBox="0 0 24 24">
            <path d="m21 3h-17a2 2 0 0 0 -2 2v14a2 2 0 0 0 2 2h16a2 2 0 0 0 2-2v-11a1 1 0 0 0 -1-1h-16a1 1 0 0 1 0-2h17v-1a1 1 0 0 0 -1-1zm-2.5 9.5a1.5 1.5 0 1 1 -1.5 1.5 1.5 1.5 0 0 1 1.5-1.5z"/>
        </symbol>

        <symbol id="menu_envelope" enable-background="new 0 0 24 24" viewBox="0 0 24 24">
            <path d="m12 16c-.6 0-1.1-.2-1.6-.4l-8.4-5.2v6.6c0 1.7 1.3 3 3 3h14c1.7 0 3-1.3 3-3v-6.6l-8.4 5.2c-.5.2-1 .4-1.6.4zm7-12h-14c-1.7 0-3 1.3-3 3v1.1l9.5 5.8c.3.2.7.2 1 0l9.5-5.8v-1.1c0-1.7-1.3-3-3-3z" fill="currentColor"/>
        </symbol>
        
        <symbol id="menu_friends" viewBox="0 -24 512.001 512" >
            <path d="m442.210938 220.539062c-24.441407 20.144532-55.738282 32.261719-89.808594 32.261719-11.792969 0-23.253906-1.453125-34.210938-4.183593 19.59375 29.835937 31.011719 65.5 31.011719 103.785156v56.230468c0 21.03125-7.679687 40.292969-20.359375 55.167969h127.992188c30.417968 0 55.164062-24.746093 55.164062-55.167969v-56.230468c0-54.726563-27.691406-103.101563-69.789062-131.863282zm0 0"/><path d="m159.601562 222.800781c61.425782 0 111.398438-49.972656 111.398438-111.398437 0-61.429688-49.972656-111.402344-111.398438-111.402344-61.425781 0-111.398437 49.972656-111.398437 111.402344 0 61.425781 49.972656 111.398437 111.398437 111.398437zm0 0"/><path d="m352.398438 222.800781c61.425781 0 111.402343-49.972656 111.402343-111.398437 0-61.429688-49.976562-111.402344-111.402343-111.402344-29.714844 0-56.746094 11.695312-76.742188 30.722656 15.964844 22.898438 25.34375 50.710938 25.34375 80.679688 0 29.964844-9.378906 57.777344-25.34375 80.675781 19.996094 19.027344 47.027344 30.722656 76.742188 30.722656zm0 0"/><path d="m249.410156 220.539062c-24.4375 20.144532-55.734375 32.261719-89.808594 32.261719-34.074218 0-65.371093-12.113281-89.8125-32.261719-42.097656 28.761719-69.789062 77.136719-69.789062 131.863282v56.230468c0 30.421876 24.746094 55.167969 55.167969 55.167969h208.863281c30.421875 0 55.167969-24.746093 55.167969-55.167969v-56.230468c0-54.726563-27.6875-103.101563-69.789063-131.863282zm0 0"/>
        </symbol>

        <symbol id="menu_bethistory" enable-background="new 0 0 512 512" viewBox="0 0 512 512">
            <path clip-rule="evenodd" d="m474.47 423.925v-411.654c0-.868-.526-1.606-1.346-1.89s-1.69-.028-2.226.654l-38.227 48.627c-.98 1.246-2.345 1.909-3.931 1.909s-2.951-.663-3.931-1.909l-37.824-48.115c-.986-1.254-2.363-1.918-3.958-1.91-1.595.009-2.965.688-3.937 1.953l-36.765 47.838c-.965 1.255-2.318 1.932-3.901 1.953-1.583.02-2.953-.624-3.95-1.854l-38.936-48.109c-.996-1.231-2.366-1.874-3.949-1.854s-2.937.697-3.901 1.953l-36.822 47.912c-.964 1.255-2.318 1.932-3.901 1.953-1.583.02-2.953-.624-3.95-1.854l-38.98-48.165c-.99-1.223-2.348-1.865-3.922-1.854-1.573.011-2.923.672-3.895 1.909l-37.925 48.244c-.98 1.246-2.345 1.909-3.93 1.909-1.586 0-2.951-.663-3.93-1.909l-38.227-48.627c-.536-.683-1.406-.938-2.226-.654s-1.346 1.022-1.346 1.89v387.052h198.702c5.508 0 10 4.492 10 10v14.602c0 43.391 35.175 78.566 78.566 78.566 43.393 0 78.568-35.175 78.568-78.566zm-436.938 1.597c-.056-2.788.906-5.208 2.858-7.199 1.952-1.992 4.353-3 7.142-3h253.807v8.602c0 32.738 16.643 61.591 41.926 78.566h-227.183c-42.857 0-77.699-34.315-78.55-76.969zm375.299-162.539c0 4.418-3.582 8-8 8h-226.556c-4.418 0-8-3.582-8-8s3.582-8 8-8h226.556c4.418 0 8 3.582 8 8zm0-60.304c0 4.418-3.582 8-8 8h-226.556c-4.418 0-8-3.582-8-8s3.582-8 8-8h226.556c4.418 0 8 3.582 8 8zm0-60.305c0 4.418-3.582 8-8 8h-226.556c-4.418 0-8-3.582-8-8s3.582-8 8-8h226.556c4.418.001 8 3.582 8 8zm0 180.913c0 4.418-3.582 8-8 8h-226.556c-4.418 0-8-3.582-8-8s3.582-8 8-8h226.556c4.418 0 8 3.582 8 8z" fill-rule="evenodd"/>
        </symbol>

        <symbol id="menu_transaction" enable-background="new 0 0 100 100" viewBox="0 0 100 100">
            <path d="m8.8333149 89.583252c0 4.373291 3.5435181 7.916748 7.916687 7.916748h66.5c4.3731689 0 7.916687-3.543457 7.916687-7.916748v-62.9500733c0-2.0994873-.8328247-4.1135254-2.3179932-5.5955811-4.42383-4.4238281-11.7958393-11.7957763-16.2197284-16.2196044-1.4819946-1.4852295-3.4959107-2.3179932-5.595459-2.3179932h-50.2835064c-2.0994873 0-4.1134644.8327637-5.5986938 2.3179932-1.4851075 1.4852295-2.3179932 3.4991455-2.3179932 5.5986328zm22.1666851-61.75h38c1.7479858 0 3.166687 1.4187012 3.166687 3.166748s-1.4187012 3.166626-3.166687 3.166626h-38c-1.7479858 0-3.166687-1.4185791-3.166687-3.166626s1.4187012-3.166748 3.166687-3.166748zm0 19h38c1.7479858 0 3.166687 1.4187012 3.166687 3.166748s-1.4187012 3.166626-3.166687 3.166626h-38c-1.7479858 0-3.166687-1.4185791-3.166687-3.166626s1.4187012-3.166748 3.166687-3.166748zm0 19h38c1.7479858 0 3.166687 1.4187012 3.166687 3.166748s-1.4187012 3.166626-3.166687 3.166626h-38c-1.7479858 0-3.166687-1.4185791-3.166687-3.166626s1.4187012-3.166748 3.166687-3.166748z"/>
        </symbol>

        <symbol id="menu_crypto" enable-background="new 0 0 512 512" viewBox="0 0 512 512">
            <g><path d="m512 256c0-22.007-22.945-40.705-28.37-61.002-5.613-21.001 4.744-48.635-5.895-67.022-10.791-18.652-40.003-23.434-55.14-38.571s-19.919-44.349-38.571-55.14c-18.387-10.638-46.022-.282-67.023-5.895-20.296-5.425-38.994-28.37-61.001-28.37s-40.705 22.945-61.002 28.37c-21.001 5.613-48.635-4.744-67.022 5.895-18.652 10.791-23.434 40.003-38.571 55.14s-44.349 19.919-55.14 38.571c-10.638 18.387-.282 46.022-5.895 67.023-5.425 20.296-28.37 38.994-28.37 61.001s22.945 40.705 28.37 61.002c5.613 21.001-4.744 48.635 5.895 67.022 10.791 18.652 40.003 23.434 55.14 38.571s19.919 44.349 38.571 55.14c18.387 10.638 46.022.282 67.023 5.895 20.296 5.425 38.994 28.37 61.001 28.37s40.705-22.945 61.002-28.37c21.001-5.613 48.635 4.744 67.022-5.895 18.652-10.791 23.434-40.003 38.571-55.14s44.349-19.919 55.14-38.571c10.638-18.387.282-46.022 5.895-67.023 5.425-20.296 28.37-38.994 28.37-61.001zm-256 198.147c-109.259 0-198.147-88.889-198.147-198.147s88.888-198.147 198.147-198.147 198.147 88.888 198.147 198.147-88.888 198.147-198.147 198.147z"/><path d="m256 87.853c-92.717 0-168.147 75.431-168.147 168.147s75.43 168.147 168.147 168.147 168.147-75.43 168.147-168.147-75.43-168.147-168.147-168.147zm132.482 139.847-57.953 56.49 13.681 79.765-16.579 12.043-71.631-37.659-71.632 37.659-16.579-12.043 13.681-79.765-57.953-56.49 6.329-19.488 80.091-11.638 35.819-72.574h20.488l35.818 72.575 80.091 11.638z"/><path d="m256 171.029-26.14 52.966-58.451 8.493 42.296 41.228-9.985 58.215 52.28-27.485 52.28 27.485-9.985-58.215 42.296-41.228-58.451-8.493z"/></g>
        </symbol>

        <symbol id="menu_moneylog" enable-background="new 0 0 32 32" viewBox="0 0 32 32">
            <g><path d="m23 28c-1.1 0-2.1-.7-2.5-1.8 0-.1 0-.2-.1-.2h-8.9c0 .1 0 .2-.1.2-.3 1.1-1.3 1.8-2.4 1.8-.6 0-1 .4-1 1s.4 1 1 1h14c.6 0 1-.4 1-1s-.4-1-1-1z"/></g><path d="m27 3h-22c-1.7 0-3 1.3-3 3v15c0 1.7 1.3 3 3 3h6.9 8.1 7c1.7 0 3-1.3 3-3v-15c0-1.7-1.3-3-3-3zm-2 12h-5c-.3 0-.6-.2-.8-.4l-.9-1.4-1.3 3.2c-.2.3-.6.6-1 .6-.4 0-.7-.2-.9-.6l-1.4-2.8-1 1c-.2.3-.4.4-.7.4h-5c-.6 0-1-.4-1-1s.4-1 1-1h4.6l1.7-1.7c.2-.2.6-.3.9-.3.3.1.6.3.7.5l1 2 1.2-2.9c.1-.3.5-.6.8-.6.4 0 .7.1.9.4l1.7 2.6h4.5c.6 0 1 .4 1 1s-.4 1-1 1z"/>
        </symbol>

        <symbol id="menu_setting" enable-background="new 0 0 548.25 548.25" viewBox="0 0 548.25 548.25">
            <g><g id="Icon_00000093895562345236468680000002635522421730978688_"><path clip-rule="evenodd" d="m341.292 17.672s19.099 55.412 19.099 55.386c15.886 6.809 30.881 15.478 44.702 25.831l57.553-11.169c6.681-1.3 13.566 1.071 18.054 6.197 23.333 26.775 41.259 57.809 52.76 91.417 2.218 6.452.816 13.592-3.647 18.742 0 0-38.428 44.242-38.428 44.217 2.04 17.161 2.04 34.501 0 51.637l38.428 44.242c4.463 5.151 5.865 12.291 3.647 18.742-11.501 33.609-29.427 64.642-52.76 91.417-4.488 5.126-11.373 7.497-18.054 6.197 0 0-57.553-11.169-57.528-11.169-13.846 10.353-28.866 19.023-44.727 25.806l-19.099 55.411c-2.219 6.451-7.701 11.22-14.382 12.546-34.858 6.834-70.711 6.834-105.57 0-6.681-1.326-12.163-6.095-14.382-12.546 0 0-19.099-55.411-19.099-55.386-15.887-6.809-30.88-15.478-44.702-25.832l-57.553 11.172c-6.681 1.301-13.566-1.071-18.054-6.197-23.333-26.775-41.259-57.809-52.76-91.418-2.219-6.452-.816-13.591 3.646-18.742 0 0 38.429-44.242 38.429-44.217-2.04-17.162-2.04-34.501 0-51.638l-38.428-44.242c-4.462-5.151-5.865-12.291-3.647-18.742 11.501-33.609 29.427-64.642 52.759-91.418 4.488-5.126 11.373-7.497 18.054-6.196 0 0 57.553 11.169 57.528 11.169 13.847-10.353 28.866-19.023 44.727-25.806l19.099-55.411c2.219-6.451 7.701-11.22 14.382-12.546 34.858-6.834 70.711-6.834 105.57 0 6.682 1.326 12.164 6.094 14.383 12.546zm-67.167 143.718c-62.22 0-112.736 50.515-112.736 112.736s50.515 112.735 112.736 112.735 112.735-50.516 112.735-112.736-50.515-112.735-112.735-112.735zm0 38.25c41.106 0 74.485 33.38 74.485 74.485s-33.379 74.485-74.485 74.485-74.485-33.379-74.485-74.485 33.379-74.485 74.485-74.485z" fill-rule="evenodd"/></g></g>
        </symbol>

        <symbol id="arrow" viewBox="0 0 682.67 682.67" fill="none">
            <path
                d="M151.39 341.33L465.5 655.44L531.28 589.66L282.95 341.33L531.28 93L465.5 27.22L151.39 341.33Z"
                fill="currentColor"
                stroke="currentColor"
                stroke-width="40"
                stroke-miterlimit="13.33"
            />
        </symbol>

        <symbol id="menu" enable-background="new 0 0 24 24" viewBox="0 0 24 24">
            <g><g><g><circle cx="20.5" cy="6.5" r="1.5"/></g><g><path d="m16.5 8h-13c-.8281 0-1.5-.6719-1.5-1.5s.6719-1.5 1.5-1.5h13c.8281 0 1.5.6719 1.5 1.5s-.6719 1.5-1.5 1.5z"/></g></g><g><path d="m16.5 14h-13c-.8281 0-1.5-.6719-1.5-1.5s.6719-1.5 1.5-1.5h13c.8281 0 1.5.6719 1.5 1.5s-.6719 1.5-1.5 1.5z"/></g><g><path d="m10.5 20h-7c-.8281 0-1.5-.6719-1.5-1.5s.6719-1.5 1.5-1.5h7c.8281 0 1.5.6719 1.5 1.5s-.6719 1.5-1.5 1.5z"/></g></g>
        </symbol>

        <symbol id="search" viewBox="0 0 118.783 118.783">
            <path
                d="M115.97 101.597L88.661 74.286C93.301 66.899 95.994 58.168 95.994 48.798C95.994 22.289 74.504 0.802 47.996 0.802C21.487 0.802 0 22.289 0 48.798C0 75.308 21.487 96.793 47.996 96.793C58.193 96.793 67.638 93.605 75.41 88.188L102.394 115.174C104.269 117.047 106.727 117.98 109.182 117.98C111.64 117.98 114.095 117.047 115.973 115.174C119.72 111.423 119.72 105.347 115.97 101.597ZM47.996 81.243C30.079 81.243 15.553 66.718 15.553 48.8C15.553 30.882 30.079 16.356 47.996 16.356C65.914 16.356 80.439 30.882 80.439 48.8C80.439 66.718 65.914 81.243 47.996 81.243Z"
                fill="currentColor"
            />
        </symbol>

        <symbol id="play" enable-background="new 0 0 512 512" viewBox="0 0 512 512" >
            <g id="Layer_2_00000070827265553928813150000015508787529661124756_"><g id="Layer_1-2"><path id="_12.Play" d="m22.4 256v-166.3c0-68.9 74.6-112 134.2-77.5l144.1 83.2 144.1 83.2c59.7 34.4 59.7 120.6 0 155l-144.1 83.2-144.1 83.2c-59.6 34.3-134.2-8.7-134.2-77.6z"/></g></g>
        </symbol>


        <symbol id="x" enable-background="new 0 0 320.591 320.591" viewBox="0 0 320.591 320.591" >
            <g><g id="close_1_"><path d="m30.391 318.583c-7.86.457-15.59-2.156-21.56-7.288-11.774-11.844-11.774-30.973 0-42.817l257.812-257.813c12.246-11.459 31.462-10.822 42.921 1.424 10.362 11.074 10.966 28.095 1.414 39.875l-259.331 259.331c-5.893 5.058-13.499 7.666-21.256 7.288z"/><path d="m287.9 318.583c-7.966-.034-15.601-3.196-21.257-8.806l-257.813-257.814c-10.908-12.738-9.425-31.908 3.313-42.817 11.369-9.736 28.136-9.736 39.504 0l259.331 257.813c12.243 11.462 12.876 30.679 1.414 42.922-.456.487-.927.958-1.414 1.414-6.35 5.522-14.707 8.161-23.078 7.288z"/></g></g>
        </symbol>
        
        <symbol id="trash" enable-background="new 0 0 512 512" viewBox="0 0 512 512">
            <path d="m305.66 53.39-75.224-19.555 4.546-17.49c2.851-10.965 12.081-18.143 20.512-15.951l44.566 11.585c8.432 2.192 12.997 12.956 10.147 23.921zm-196.68 135.826h308.168v282.935c0 21.917-17.932 39.848-39.849 39.848h-228.47c-21.917 0-39.849-17.932-39.849-39.848zm221.393 254.708h20.334v-186.631h-20.334zm-77.475 0h20.334v-186.631h-20.334zm-77.475 0h20.334v-186.631h-20.334zm243.949-339.965-313.041-81.378c-14.495-3.768-29.438 5.008-33.206 19.503-3.768 14.494 5.008 29.438 19.503 33.206l313.041 81.379c14.495 3.768 29.438-5.008 33.206-19.504 3.768-14.495-5.008-29.437-19.503-33.206z"/>
        </symbol>

        <symbol id="krw" viewBox="180 180 1240 1240">
            <path d="M800,200c331.4,0,600,268.6,600,600s-268.6,600-600,600S200,1131.4,200,800,468.6,200,800,200ZM1232.1,865.8v-.6c0-16.6-13.4-30-30-30h-85.8c6-23,12.1-46.1,18.1-69.1h67.7c16.6,0,30-13.4,30-30v-.6c0-16.6-13.4-30-30-30h-52.1c13.1-50.7,26.3-101.4,39.4-152.1,9.3-35.8-17.8-70.7-54.7-70.7h-1.2c-26.1,0-48.9,17.9-55,43.3-14.4,59.9-28.7,119.7-43.1,179.5h-117.1c-10.3-50.9-20.6-101.9-30.9-152.8-8.2-40.8-44.1-70.1-85.6-70.1h-1.4c-41.6,0-77.5,29.4-85.7,70.2-10.2,50.9-20.4,101.8-30.6,152.7h-114.6c-14.4-59.8-28.7-119.7-43.1-179.5-6.1-25.4-28.8-43.4-55-43.3h-6.1c-37,0-64.1,35-54.7,70.8,13.2,50.7,26.4,101.4,39.7,152.1h-51.8c-8.4,0-16,3.4-21.4,8.9-5.5,5.5-8.9,13.1-8.9,21.4,0,16.8,13.6,30.3,30.3,30.3h67.4c6,23,12.1,46.1,18.1,69.1h-85.5c-16.8,0-30.3,13.6-30.3,30.3s13.6,30.3,30.3,30.3h101.5c13.3,51,26.6,102.1,39.9,153.1,5.3,20.2,17,37.3,32.6,49.4s35.2,19.1,56,19.1c43.8,0,81.5-31,89.9-74,9.6-49.2,19.3-98.4,28.9-147.6h104.9c10.1,49.4,20.1,98.8,30.2,148.3,8.7,42.7,46.2,73.3,89.8,73.3h.4c41.8,0,78.2-28.2,88.7-68.7,13.2-51,26.4-102,39.5-152.9h101.4c16.4,0,29.9-13.5,29.9-30.1h0Z"/>
            <path d="M930.8,766.1h89.7c-5.5,23-11,46.1-16.4,69.1h-59.4c-4.6-23.1-9.3-46.1-13.9-69.1h0Z"/>
            <path d="M991.9,885.3c-6.6,27.7-13.2,55.3-19.8,83-5.6-27.7-11.2-55.3-16.9-83h36.7Z"/>
            <path d="M825.9,766.1c4.6,23,9.3,46.1,13.9,69.1h-80.9c4.5-23,9-46.1,13.5-69.1h53.5Z"/>
            <path d="M799,631.3c5.6,28.2,11.2,56.5,16.8,84.7h-33.7c5.6-28.3,11.2-56.5,16.9-84.7Z"/>
            <path d="M671.7,766.1c-4.5,23-9,46.1-13.5,69.1h-57.7c-5.6-23-11.2-46.1-16.9-69.1h88.1Z"/>
            <path d="M648.1,885.3c-5.3,27.2-10.7,54.5-16,81.7-6.6-27.2-13.2-54.5-19.8-81.7h35.8Z"/>
        </symbol>

        <symbol id="usdt" enable-background="new 0 0 226.777 226.777"  viewBox="0 0 226.777 226.777">
            <g fill="currentColor">
                <path d="m127.329 100.328v16.979c-4.464.224-9.133.347-13.94.347-5.223 0-10.278-.143-15.087-.411v-13.556h-.003v-3.307c-26.678 1.284-46.427 5.897-46.427 11.392 0 6.491 27.542 11.749 61.518 11.749 33.974 0 61.518-5.258 61.518-11.749-.001-5.576-20.321-10.239-47.579-11.444z"/><path d="m113.389-.001c-62.622 0-113.389 50.764-113.389 113.388 0 62.621 50.767 113.39 113.389 113.39s113.388-50.769 113.388-113.39c0-62.624-50.767-113.388-113.388-113.388zm13.938 132.639v50.016h-29.029v-50.084c-31.075-1.798-54.321-9.026-54.321-17.674 0-8.646 23.246-15.873 54.321-17.674v-14.015h-39.519v-29.028h108.071v29.028h-39.523l.002 13.948c31.654 1.684 55.474 8.989 55.474 17.741-.001 8.754-23.82 16.06-55.476 17.742z"/>
            </g>
        </symbol>


        <symbol id="deposit" viewBox="0 0 24 24">
            <path clip-rule="evenodd" d="M18 3H6C3.8 3 2 4.8 2 7c0 1.7 1 3.1 2.5 3.7V7c0-.4.2-.8.4-1.1s.7-.4 1.1-.4h12c.4 0 .8.2 1.1.4s.4.7.4 1.1v3.7c1.5-.6 2.5-2 2.5-3.7 0-2.2-1.8-4-4-4zm0 16V7H6v12c0 1.1.9 2 2 2h8c1.1 0 2-.9 2-2zm-6.8-6.6-.7.7c-.3.3-.8.3-1.1 0s-.3-.8 0-1.1l1.3-1.3c.7-.7 1.8-.7 2.5 0l1.3 1.3c.3.3.3.8 0 1.1s-.8.3-1.1 0l-.7-.7v4.2c0 .4-.3.8-.8.8s-.8-.3-.8-.8v-4.2z" fill="currentColor" fill-rule="evenodd"/>
        </symbol>

        <symbol id="withdrawal" viewBox="0 0 24 24">
            <g fill="currentColor">
                <path d="M6 3h12c2.2 0 4 1.8 4 4 0 1.7-1 3.1-2.5 3.7V7c0-.4-.2-.8-.4-1.1s-.7-.4-1.1-.4h-12c-.4 0-.8.2-1.1.4s-.4.7-.4 1.1v3.7C3 10.1 2 8.7 2 7c0-2.2 1.8-4 4-4z"/>
                <path clip-rule="evenodd" d="M18 7v12c0 1.1-.9 2-2 2h-8c-1.1 0-2-.9-2-2v-12zm-7.5 7.5.7.7v-4.2c0-.4.3-.8.8-.8s.8.3.8.8v4.2l.7-.7c.3-.3.8-.3 1.1 0s.3.8 0 1.1l-1.3 1.3c-.7.7-1.8.7-2.5 0l-1.3-1.3c-.3-.3-.3-.8 0-1.1s.7-.3 1 0z" fill-rule="evenodd"/>
            </g>
        </symbol>

        <symbol id="wallet" viewBox="0 0 24 24">
            <path d="M21 3H4a2 2 0 0 0-2 2v14a2 2 0 0 0 2 2h16a2 2 0 0 0 2-2V8a1 1 0 0 0-1-1H5a1 1 0 0 1 0-2h17V4a1 1 0 0 0-1-1zm-2.5 9.5A1.5 1.5 0 1 1 17 14a1.5 1.5 0 0 1 1.5-1.5z" fill="currentColor"/>
        </symbol>

        <symbol id="point" viewBox="180 180 1240 1240">
            <path d="M1114.84 538.15c-27.12-16.97-59.33-29.12-96.61-36.45-37.8-7.61-91.78-11.42-161.97-11.42h-237.36c-40.72 0-70.41 6.16-89.09 18.45-18.69 12.31-28.03 32.81-28.03 61.5v496.41c0 25.78 8.5 45.34 25.53 58.66s39.45 19.98 67.28 19.98 48.58-6.75 66.02-20.22 26.17-33.25 26.17-59.34v-182.44h169.48c113.22 0 198.44-16.91 255.67-50.72 57.22-33.81 85.84-83.5 85.84-149.08 0-30.72-7.05-58.39-21.12-82.98-14.09-24.59-34.69-45.37-61.81-62.34ZM987.72 743.95c-15.38 14.66-37.7 25.22-66.98 31.66-29.28 6.45-65.73 9.67-109.34 9.67h-124.61v-197h124.61c82.66 0 137.28 9.53 163.88 28.58 23.67 17.89 35.52 41.05 35.52 69.48 0 23.75-7.69 42.95-23.06 57.61Z" fill="none"/>
            <path d="M1010.78 686.34c0 23.75-7.69 42.95-23.06 57.61s-37.7 25.22-66.98 31.66c-29.28 6.45-65.73 9.67-109.34 9.67h-124.61v-197h124.61c82.66 0 137.28 9.53 163.88 28.58 23.67 17.89 35.52 41.05 35.52 69.48ZM1400 800c0 331.4-268.6 600-600 600S200 1131.4 200 800 468.6 200 800 200s600 268.6 600 600ZM1197.78 683.48c0-30.72-7.05-58.39-21.12-82.98-14.09-24.59-34.69-45.37-61.81-62.34s-59.33-29.12-96.61-36.45c-37.8-7.61-91.78-11.42-161.97-11.42h-237.36c-40.72 0-70.41 6.16-89.09 18.45-18.69 12.31-28.03 32.81-28.03 61.5v496.41c0 25.78 8.5 45.34 25.53 58.66s39.45 19.98 67.28 19.98 48.58-6.75 66.02-20.22 26.17-33.25 26.17-59.34v-182.44h169.48c113.22 0 198.44-16.91 255.67-50.72 57.22-33.81 85.84-83.5 85.84-149.08Z" fill="currentColor"/>
        </symbol>

        <symbol id="watch" clip-rule="evenodd" fill-rule="evenodd" image-rendering="optimizeQuality" shape-rendering="geometricPrecision" text-rendering="geometricPrecision" viewBox="0 0 127000 127000">
            <g id="&#x56FE;&#x5C42;_x0020_1"><path d="m-.582-.582h127001v127001h-127001z" fill="none"/><path d="m63501 29640c29358 0 53270 27676 54157 33834h9l-5 26 5 26h-9c-887 6158-24799 33834-54157 33834-29362 0-53275-27640-54158-33834h-9l5-26-5-26h9c883-6194 24796-33834 54158-33834zm-1 14701c10579 0 19159 8580 19159 19159s-8580 19159-19159 19159-19159-8580-19159-19159 8580-19159 19159-19159z"/></g>
        </symbol>
        
        <symbol id="watch-off" clip-rule="evenodd" fill-rule="evenodd" image-rendering="optimizeQuality" shape-rendering="geometricPrecision" text-rendering="geometricPrecision" viewBox="0 0 127000 127000" xmlns="http://www.w3.org/2000/svg">
            <g id="&#x56FE;&#x5C42;_x0020_1"><path d="m-.582-.582h127001v127001h-127001z" fill="none"/><path d="m63501 29640c8338 0 16236 2233 23291 5571l-13798 11646c-2799-1601-6040-2516-9494-2516-10579 0-19159 8580-19159 19159 0 2306 408 4519 1156 6567l-17270 14577c-11182-8133-18406-17766-18884-21118h-9l5-26-5-26h9c883-6194 24796-33834 54158-33834zm34688 12308c11511 8225 18981 18136 19469 21526h9l-5 26 5 26h-9c-887 6158-24799 33834-54157 33834-8609 0-16749-2377-23978-5893l13858-11698c2936 1831 6404 2890 10119 2890 10579 0 19159-8580 19159-19159 0-2564-505-5009-1419-7245z"/><path d="m95495 26991 1163-986c404-343 894-472 1415-371 521 100 928 402 1176 871l2089 3947c376 711 212 1564-402 2084l-1731 1467-73527 62061-1164 986c-405 343-894 472-1415 371-521-100-928-402-1176-871l-2089-3947c-376-711-211-1564 402-2084l1732-1467z" fill-rule="nonzero"/></g>
        </symbol>

        <symbol id="telegram" enable-background="new 0 0 32 32" viewBox="0 0 32 32">
            <g><path d="m2.61743 15.83185 6.44043 2.18732 15.29034-9.34778c.22162-.13556.44873.16547.25757.34143l-11.57592 10.65509-.43048 5.96521c-.03278.4538.51385.70642.83826.38745l3.56421-3.50482 6.51569 4.93243c.70233.53174 1.7193.15698 1.90875-.70331l4.53692-20.59997c.25879-1.17517-.8927-2.16681-2.01648-1.73645l-25.36206 9.71179c-.7956.30469-.77393 1.43768.03277 1.71161z"/></g>
        </symbol>

        <symbol id="checkbox" viewBox="0 0 512 512">
            <path
                d="M384 42.67C431.06 42.67 469.33 80.94 469.33 128V384C469.33 431.06 431.06 469.33 384 469.33H128C80.94 469.33 42.67 431.06 42.67 384V128C42.67 80.94 80.94 42.67 128 42.67H384ZM384 0H128C57.3 0 0 57.3 0 128V384C0 454.7 57.3 512 128 512H384C454.7 512 512 454.7 512 384V128C512 57.3 454.7 0 384 0Z"
                fill="currentColor"
            />
        </symbol>

        <symbol id="checkbox-select" viewBox="0 0 24 24">
            <path
                d="M18 2C20.206 2 22 3.794 22 6V18C22 20.206 20.206 22 18 22H6C3.794 22 2 20.206 2 18V6C2 3.794 3.794 2 6 2H18ZM18 0H6C2.686 0 0 2.686 0 6V18C0 21.314 2.686 24 6 24H18C21.314 24 24 21.314 24 18V6C24 2.686 21.314 0 18 0Z"
                fill="currentColor"
            />
            <path
                d="M9.957 17C9.704 17 9.452 16.904 9.257 16.714L6.4 13.914C6.006 13.528 6 12.895 6.386 12.5C6.773 12.105 7.407 12.1 7.8 12.485L9.957 14.6L16.399 8.286C16.794 7.9 17.427 7.904 17.813 8.3C18.2 8.694 18.194 9.328 17.8 9.714L10.657 16.714C10.462 16.904 10.21 17 9.957 17Z"
                fill="currentColor"
            />
        </symbol>

        <symbol id="back-arrow" fill="none" viewBox="0 0 24 24" >
            <g clip-rule="evenodd" fill="currentColor" fill-rule="evenodd"><path d="m5 12c0-.5523.44772-1 1-1h12c.5523 0 1 .4477 1 1s-.4477 1-1 1h-12c-.55228 0-1-.4477-1-1z"/><path d="m11.7071 17.7071c-.3905.3905-1.0237.3905-1.4142 0l-5.00001-5c-.39052-.3905-.39052-1.0237 0-1.4142l5.00001-5.00001c.3905-.39052 1.0237-.39052 1.4142 0 .3905.39053.3905 1.02369 0 1.41422l-4.29289 4.29289 4.29289 4.2929c.3905.3905.3905 1.0237 0 1.4142z"/></g>
        </symbol>

        <symbol id="logout" enable-background="new 0 0 512 512" viewBox="0 0 512 512">
            <path clip-rule="evenodd" d="m252.326 430.455v25.516c0 20.462-10.198 38.127-27.919 48.357-8.526 4.922-18.042 7.668-27.908 7.673-9.875.005-19.388-2.746-27.92-7.673l-113.456-65.504c-17.723-10.232-27.919-27.892-27.919-48.357v-334.629c0-30.791 25.048-55.838 55.838-55.838h249.871c30.792 0 55.842 25.045 55.842 55.838v70.539c0 10.119-8.216 18.335-18.335 18.335-10.122 0-18.331-8.215-18.331-18.335v-70.539c0-10.573-8.603-19.176-19.176-19.176h-218.952l110.446 63.777c17.715 10.23 27.919 27.89 27.919 48.347v245.003h80.587c10.572 0 19.176-8.598 19.176-19.172v-61.836c0-10.126 8.204-18.335 18.331-18.335 10.123 0 18.335 8.211 18.335 18.335v61.836c0 30.793-25.05 55.838-55.842 55.838zm169.883-196.897-20.191 20.191c-7.159 7.159-7.157 18.765 0 25.925 3.446 3.448 8.09 5.364 12.963 5.364 4.878 0 9.517-1.911 12.968-5.364l51.479-51.488c7.157-7.158 7.158-18.758 0-25.916l-51.479-51.48c-7.16-7.16-18.767-7.157-25.93-.001-7.157 7.152-7.155 18.763 0 25.917l20.19 20.186h-135.26c-10.129 0-18.331 8.208-18.331 18.336s8.203 18.331 18.331 18.331h135.26z" fill-rule="evenodd"/>
        </symbol>

        



</svg>